<svg class="rich-terminal" viewBox="0 0 750 440.4" xmlns="http://www.w3.org/2000/svg">
    <!-- Generated with Rich https://www.textualize.io -->
    <style>

    @font-face {
        font-family: "Fira Code";
        src: local("FiraCode-Regular"),
                url("https://cdnjs.cloudflare.com/ajax/libs/firacode/6.2.0/woff2/FiraCode-Regular.woff2") format("woff2"),
                url("https://cdnjs.cloudflare.com/ajax/libs/firacode/6.2.0/woff/FiraCode-Regular.woff") format("woff");
        font-style: normal;
        font-weight: 400;
    }
    @font-face {
        font-family: "Fira Code";
        src: local("FiraCode-Bold"),
                url("https://cdnjs.cloudflare.com/ajax/libs/firacode/6.2.0/woff2/FiraCode-Bold.woff2") format("woff2"),
                url("https://cdnjs.cloudflare.com/ajax/libs/firacode/6.2.0/woff/FiraCode-Bold.woff") format("woff");
        font-style: bold;
        font-weight: 700;
    }

    .terminal-matrix {
        font-family: Fira Code, monospace;
        font-size: 20px;
        line-height: 24.4px;
        font-variant-east-asian: full-width;
    }

    .terminal-title {
        font-size: 18px;
        font-weight: bold;
        font-family: arial;
    }

    .terminal-r1 { fill: #c5c8c6 }
.terminal-r2 { fill: #c0caf5 }
.terminal-r3 { fill: #7aa2f7 }
.terminal-r4 { fill: #a3a3a8 }
.terminal-r5 { fill: #c8f891 }
.terminal-r6 { fill: #141a0d;font-weight: bold }
.terminal-r7 { fill: #619030 }
.terminal-r8 { fill: #a3a3a8;font-weight: bold }
.terminal-r9 { fill: #bb9af7;font-weight: bold }
.terminal-r10 { fill: #434860 }
    </style>

    <defs>
    <clipPath id="terminal-clip-terminal">
      <rect x="0" y="0" width="731.0" height="389.4" />
    </clipPath>
    <clipPath id="terminal-line-0">
    <rect x="0" y="1.5" width="732" height="24.65"/>
            </clipPath>
<clipPath id="terminal-line-1">
    <rect x="0" y="25.9" width="732" height="24.65"/>
            </clipPath>
<clipPath id="terminal-line-2">
    <rect x="0" y="50.3" width="732" height="24.65"/>
            </clipPath>
<clipPath id="terminal-line-3">
    <rect x="0" y="74.7" width="732" height="24.65"/>
            </clipPath>
<clipPath id="terminal-line-4">
    <rect x="0" y="99.1" width="732" height="24.65"/>
            </clipPath>
<clipPath id="terminal-line-5">
    <rect x="0" y="123.5" width="732" height="24.65"/>
            </clipPath>
<clipPath id="terminal-line-6">
    <rect x="0" y="147.9" width="732" height="24.65"/>
            </clipPath>
<clipPath id="terminal-line-7">
    <rect x="0" y="172.3" width="732" height="24.65"/>
            </clipPath>
<clipPath id="terminal-line-8">
    <rect x="0" y="196.7" width="732" height="24.65"/>
            </clipPath>
<clipPath id="terminal-line-9">
    <rect x="0" y="221.1" width="732" height="24.65"/>
            </clipPath>
<clipPath id="terminal-line-10">
    <rect x="0" y="245.5" width="732" height="24.65"/>
            </clipPath>
<clipPath id="terminal-line-11">
    <rect x="0" y="269.9" width="732" height="24.65"/>
            </clipPath>
<clipPath id="terminal-line-12">
    <rect x="0" y="294.3" width="732" height="24.65"/>
            </clipPath>
<clipPath id="terminal-line-13">
    <rect x="0" y="318.7" width="732" height="24.65"/>
            </clipPath>
<clipPath id="terminal-line-14">
    <rect x="0" y="343.1" width="732" height="24.65"/>
            </clipPath>
    </defs>

    <rect fill="#292929" stroke="rgba(255,255,255,0.35)" stroke-width="1" x="1" y="1" width="748" height="438.4" rx="8"/><text class="terminal-title" fill="#c5c8c6" text-anchor="middle" x="374" y="27">termdash</text>
            <g transform="translate(26,22)">
            <circle cx="0" cy="0" r="7" fill="#ff5f57"/>
            <circle cx="22" cy="0" r="7" fill="#febc2e"/>
            <circle cx="44" cy="0" r="7" fill="#28c840"/>
            </g>
        
    <g transform="translate(9, 41)" clip-path="url(#terminal-clip-terminal)">
    <rect fill="#24283b" x="0" y="1.5" width="12.2" height="24.65" shape-rendering="crispEdges"/><rect fill="#24283b" x="12.2" y="1.5" width="12.2" height="24.65" shape-rendering="crispEdges"/><rect fill="#24283b" x="24.4" y="1.5" width="61" height="24.65" shape-rendering="crispEdges"/><rect fill="#24283b" x="85.4" y="1.5" width="12.2" height="24.65" shape-rendering="crispEdges"/><rect fill="#24283b" x="97.6" y="1.5" width="207.4" height="24.65" shape-rendering="crispEdges"/><rect fill="#24283b" x="305" y="1.5" width="97.6" height="24.65" shape-rendering="crispEdges"/><rect fill="#24283b" x="402.6" y="1.5" width="207.4" height="24.65" shape-rendering="crispEdges"/><rect fill="#24283b" x="610" y="1.5" width="12.2" height="24.65" shape-rendering="crispEdges"/><rect fill="#24283b" x="622.2" y="1.5" width="0" height="24.65" shape-rendering="crispEdges"/><rect fill="#24283b" x="622.2" y="1.5" width="109.8" height="24.65" shape-rendering="crispEdges"/><rect fill="#1a1b26" x="0" y="25.9" width="732" height="24.65" shape-rendering="crispEdges"/><rect fill="#1a1b26" x="0" y="50.3" width="12.2" height="24.65" shape-rendering="crispEdges"/><rect fill="#1a1b26" x="12.2" y="50.3" width="707.6" height="24.65" shape-rendering="crispEdges"/><rect fill="#1a1b26" x="719.8" y="50.3" width="12.2" height="24.65" shape-rendering="crispEdges"/><rect fill="#1a1b26" x="0" y="74.7" width="12.2" height="24.65" shape-rendering="crispEdges"/><rect fill="#1a1b26" x="12.2" y="74.7" width="12.2" height="24.65" shape-rendering="crispEdges"/><rect fill="#1a1b26" x="24.4" y="74.7" width="683.2" height="24.65" shape-rendering="crispEdges"/><rect fill="#1a1b26" x="707.6" y="74.7" width="12.2" height="24.65" shape-rendering="crispEdges"/><rect fill="#1a1b26" x="719.8" y="74.7" width="12.2" height="24.65" shape-rendering="crispEdges"/><rect fill="#1a1b26" x="0" y="99.1" width="12.2" height="24.65" shape-rendering="crispEdges"/><rect fill="#1a1b26" x="12.2" y="99.1" width="12.2" height="24.65" shape-rendering="crispEdges"/><rect fill="#1a1b26" x="24.4" y="99.1" width="12.2" height="24.65" shape-rendering="crispEdges"/><rect fill="#1a1b26" x="36.6" y="99.1" width="183" height="24.65" shape-rendering="crispEdges"/><rect fill="#1a1b26" x="219.6" y="99.1" width="292.8" height="24.65" shape-rendering="crispEdges"/><rect fill="#1a1b26" x="512.4" y="99.1" width="183" height="24.65" shape-rendering="crispEdges"/><rect fill="#1a1b26" x="695.4" y="99.1" width="12.2" height="24.65" shape-rendering="crispEdges"/><rect fill="#1a1b26" x="707.6" y="99.1" width="12.2" height="24.65" shape-rendering="crispEdges"/><rect fill="#1a1b26" x="719.8" y="99.1" width="12.2" height="24.65" shape-rendering="crispEdges"/><rect fill="#1a1b26" x="0" y="123.5" width="12.2" height="24.65" shape-rendering="crispEdges"/><rect fill="#1a1b26" x="12.2" y="123.5" width="12.2" height="24.65" shape-rendering="crispEdges"/><rect fill="#1a1b26" x="24.4" y="123.5" width="12.2" height="24.65" shape-rendering="crispEdges"/><rect fill="#1a1b26" x="36.6" y="123.5" width="183" height="24.65" shape-rendering="crispEdges"/><rect fill="#1a1b26" x="219.6" y="123.5" width="292.8" height="24.65" shape-rendering="crispEdges"/><rect fill="#1a1b26" x="512.4" y="123.5" width="183" height="24.65" shape-rendering="crispEdges"/><rect fill="#1a1b26" x="695.4" y="123.5" width="12.2" height="24.65" shape-rendering="crispEdges"/><rect fill="#1a1b26" x="707.6" y="123.5" width="12.2" height="24.65" shape-rendering="crispEdges"/><rect fill="#1a1b26" x="719.8" y="123.5" width="12.2" height="24.65" shape-rendering="crispEdges"/><rect fill="#1a1b26" x="0" y="147.9" width="12.2" height="24.65" shape-rendering="crispEdges"/><rect fill="#1a1b26" x="12.2" y="147.9" width="12.2" height="24.65" shape-rendering="crispEdges"/><rect fill="#1a1b26" x="24.4" y="147.9" width="12.2" height="24.65" shape-rendering="crispEdges"/><rect fill="#1a1b26" x="36.6" y="147.9" width="183" height="24.65" shape-rendering="crispEdges"/><rect fill="#1a1b26" x="219.6" y="147.9" width="292.8" height="24.65" shape-rendering="crispEdges"/><rect fill="#1a1b26" x="512.4" y="147.9" width="183" height="24.65" shape-rendering="crispEdges"/><rect fill="#1a1b26" x="695.4" y="147.9" width="12.2" height="24.65" shape-rendering="crispEdges"/><rect fill="#1a1b26" x="707.6" y="147.9" width="12.2" height="24.65" shape-rendering="crispEdges"/><rect fill="#1a1b26" x="719.8" y="147.9" width="12.2" height="24.65" shape-rendering="crispEdges"/><rect fill="#1a1b26" x="0" y="172.3" width="12.2" height="24.65" shape-rendering="crispEdges"/><rect fill="#1a1b26" x="12.2" y="172.3" width="12.2" height="24.65" shape-rendering="crispEdges"/><rect fill="#1a1b26" x="24.4" y="172.3" width="158.6" height="24.65" shape-rendering="crispEdges"/><rect fill="#1a1b26" x="183" y="172.3" width="366" height="24.65" shape-rendering="crispEdges"/><rect fill="#1a1b26" x="549" y="172.3" width="158.6" height="24.65" shape-rendering="crispEdges"/><rect fill="#1a1b26" x="707.6" y="172.3" width="12.2" height="24.65" shape-rendering="crispEdges"/><rect fill="#1a1b26" x="719.8" y="172.3" width="12.2" height="24.65" shape-rendering="crispEdges"/><rect fill="#1a1b26" x="0" y="196.7" width="12.2" height="24.65" shape-rendering="crispEdges"/><rect fill="#1a1b26" x="12.2" y="196.7" width="12.2" height="24.65" shape-rendering="crispEdges"/><rect fill="#1a1b26" x="24.4" y="196.7" width="12.2" height="24.65" shape-rendering="crispEdges"/><rect fill="#9ece6a" x="36.6" y="196.7" width="658.8" height="24.65" shape-rendering="crispEdges"/><rect fill="#1a1b26" x="695.4" y="196.7" width="12.2" height="24.65" shape-rendering="crispEdges"/><rect fill="#1a1b26" x="707.6" y="196.7" width="12.2" height="24.65" shape-rendering="crispEdges"/><rect fill="#1a1b26" x="719.8" y="196.7" width="12.2" height="24.65" shape-rendering="crispEdges"/><rect fill="#1a1b26" x="0" y="221.1" width="12.2" height="24.65" shape-rendering="crispEdges"/><rect fill="#1a1b26" x="12.2" y="221.1" width="12.2" height="24.65" shape-rendering="crispEdges"/><rect fill="#1a1b26" x="24.4" y="221.1" width="12.2" height="24.65" shape-rendering="crispEdges"/><rect fill="#9ece6a" x="36.6" y="221.1" width="280.6" height="24.65" shape-rendering="crispEdges"/><rect fill="#9ece6a" x="317.2" y="221.1" width="85.4" height="24.65" shape-rendering="crispEdges"/><rect fill="#9ece6a" x="402.6" y="221.1" width="292.8" height="24.65" shape-rendering="crispEdges"/><rect fill="#1a1b26" x="695.4" y="221.1" width="12.2" height="24.65" shape-rendering="crispEdges"/><rect fill="#1a1b26" x="707.6" y="221.1" width="12.2" height="24.65" shape-rendering="crispEdges"/><rect fill="#1a1b26" x="719.8" y="221.1" width="12.2" height="24.65" shape-rendering="crispEdges"/><rect fill="#1a1b26" x="0" y="245.5" width="12.2" height="24.65" shape-rendering="crispEdges"/><rect fill="#1a1b26" x="12.2" y="245.5" width="12.2" height="24.65" shape-rendering="crispEdges"/><rect fill="#1a1b26" x="24.4" y="245.5" width="12.2" height="24.65" shape-rendering="crispEdges"/><rect fill="#9ece6a" x="36.6" y="245.5" width="658.8" height="24.65" shape-rendering="crispEdges"/><rect fill="#1a1b26" x="695.4" y="245.5" width="12.2" height="24.65" shape-rendering="crispEdges"/><rect fill="#1a1b26" x="707.6" y="245.5" width="12.2" height="24.65" shape-rendering="crispEdges"/><rect fill="#1a1b26" x="719.8" y="245.5" width="12.2" height="24.65" shape-rendering="crispEdges"/><rect fill="#1a1b26" x="0" y="269.9" width="12.2" height="24.65" shape-rendering="crispEdges"/><rect fill="#1a1b26" x="12.2" y="269.9" width="12.2" height="24.65" shape-rendering="crispEdges"/><rect fill="#1a1b26" x="24.4" y="269.9" width="305" height="24.65" shape-rendering="crispEdges"/><rect fill="#1a1b26" x="329.4" y="269.9" width="61" height="24.65" shape-rendering="crispEdges"/><rect fill="#1a1b26" x="390.4" y="269.9" width="317.2" height="24.65" shape-rendering="crispEdges"/><rect fill="#1a1b26" x="707.6" y="269.9" width="12.2" height="24.65" shape-rendering="crispEdges"/><rect fill="#1a1b26" x="719.8" y="269.9" width="12.2" height="24.65" shape-rendering="crispEdges"/><rect fill="#1a1b26" x="0" y="294.3" width="12.2" height="24.65" shape-rendering="crispEdges"/><rect fill="#1a1b26" x="12.2" y="294.3" width="12.2" height="24.65" shape-rendering="crispEdges"/><rect fill="#1a1b26" x="24.4" y="294.3" width="683.2" height="24.65" shape-rendering="crispEdges"/><rect fill="#1a1b26" x="707.6" y="294.3" width="12.2" height="24.65" shape-rendering="crispEdges"/><rect fill="#1a1b26" x="719.8" y="294.3" width="12.2" height="24.65" shape-rendering="crispEdges"/><rect fill="#1a1b26" x="0" y="318.7" width="12.2" height="24.65" shape-rendering="crispEdges"/><rect fill="#1a1b26" x="12.2" y="318.7" width="707.6" height="24.65" shape-rendering="crispEdges"/><rect fill="#1a1b26" x="719.8" y="318.7" width="12.2" height="24.65" shape-rendering="crispEdges"/><rect fill="#1a1b26" x="0" y="343.1" width="732" height="24.65" shape-rendering="crispEdges"/><rect fill="#24283b" x="0" y="367.5" width="48.8" height="24.65" shape-rendering="crispEdges"/><rect fill="#24283b" x="48.8" y="367.5" width="61" height="24.65" shape-rendering="crispEdges"/><rect fill="#24283b" x="109.8" y="367.5" width="475.8" height="24.65" shape-rendering="crispEdges"/><rect fill="#24283b" x="585.6" y="367.5" width="12.2" height="24.65" shape-rendering="crispEdges"/><rect fill="#24283b" x="597.8" y="367.5" width="24.4" height="24.65" shape-rendering="crispEdges"/><rect fill="#24283b" x="622.2" y="367.5" width="97.6" height="24.65" shape-rendering="crispEdges"/><rect fill="#24283b" x="719.8" y="367.5" width="12.2" height="24.65" shape-rendering="crispEdges"/>
    <g class="terminal-matrix">
    <text class="terminal-r2" x="12.2" y="20" textLength="12.2" clip-path="url(#terminal-line-0)">⭘</text><text class="terminal-r2" x="305" y="20" textLength="97.6" clip-path="url(#terminal-line-0)">termdash</text><text class="terminal-r1" x="732" y="20" textLength="12.2" clip-path="url(#terminal-line-0)">
</text><text class="terminal-r1" x="732" y="44.4" textLength="12.2" clip-path="url(#terminal-line-1)">
</text><text class="terminal-r3" x="12.2" y="68.8" textLength="707.6" clip-path="url(#terminal-line-2)">╭────────────────────────────────────────────────────────╮</text><text class="terminal-r1" x="732" y="68.8" textLength="12.2" clip-path="url(#terminal-line-2)">
</text><text class="terminal-r3" x="12.2" y="93.2" textLength="12.2" clip-path="url(#terminal-line-3)">│</text><text class="terminal-r3" x="707.6" y="93.2" textLength="12.2" clip-path="url(#terminal-line-3)">│</text><text class="terminal-r1" x="732" y="93.2" textLength="12.2" clip-path="url(#terminal-line-3)">
</text><text class="terminal-r3" x="12.2" y="117.6" textLength="12.2" clip-path="url(#terminal-line-4)">│</text><text class="terminal-r2" x="219.6" y="117.6" textLength="292.8" clip-path="url(#terminal-line-4)">╭─╮╭─╮&#160;&#160;&#160;╭─╮╶╮&#160;&#160;&#160;&#160;╶─╮╭─╮</text><text class="terminal-r3" x="707.6" y="117.6" textLength="12.2" clip-path="url(#terminal-line-4)">│</text><text class="terminal-r1" x="732" y="117.6" textLength="12.2" clip-path="url(#terminal-line-4)">
</text><text class="terminal-r3" x="12.2" y="142" textLength="12.2" clip-path="url(#terminal-line-5)">│</text><text class="terminal-r2" x="219.6" y="142" textLength="292.8" clip-path="url(#terminal-line-5)">│&#160;││&#160;│&#160;:&#160;│&#160;│&#160;│&#160;&#160;:&#160;&#160;─┤│&#160;│</text><text class="terminal-r3" x="707.6" y="142" textLength="12.2" clip-path="url(#terminal-line-5)">│</text><text class="terminal-r1" x="732" y="142" textLength="12.2" clip-path="url(#terminal-line-5)">
</text><text class="terminal-r3" x="12.2" y="166.4" textLength="12.2" clip-path="url(#terminal-line-6)">│</text><text class="terminal-r2" x="219.6" y="166.4" textLength="292.8" clip-path="url(#terminal-line-6)">╰─╯╰─╯&#160;&#160;&#160;╰─╯╶┴╴&#160;&#160;&#160;╶─╯╰─╯</text><text class="terminal-r3" x="707.6" y="166.4" textLength="12.2" clip-path="url(#terminal-line-6)">│</text><text class="terminal-r1" x="732" y="166.4" textLength="12.2" clip-path="url(#terminal-line-6)">
</text><text class="terminal-r3" x="12.2" y="190.8" textLength="12.2" clip-path="url(#terminal-line-7)">│</text><text class="terminal-r4" x="183" y="190.8" textLength="366" clip-path="url(#terminal-line-7)">Click&#160;digits,&#160;Enter&#160;to&#160;confirm</text><text class="terminal-r3" x="707.6" y="190.8" textLength="12.2" clip-path="url(#terminal-line-7)">│</text><text class="terminal-r1" x="732" y="190.8" textLength="12.2" clip-path="url(#terminal-line-7)">
</text><text class="terminal-r3" x="12.2" y="215.2" textLength="12.2" clip-path="url(#terminal-line-8)">│</text><text class="terminal-r5" x="36.6" y="215.2" textLength="658.8" clip-path="url(#terminal-line-8)">▔▔▔▔▔▔▔▔▔▔▔▔▔▔▔▔▔▔▔▔▔▔▔▔▔▔▔▔▔▔▔▔▔▔▔▔▔▔▔▔▔▔▔▔▔▔▔▔▔▔▔▔▔▔</text><text class="terminal-r3" x="707.6" y="215.2" textLength="12.2" clip-path="url(#terminal-line-8)">│</text><text class="terminal-r1" x="732" y="215.2" textLength="12.2" clip-path="url(#terminal-line-8)">
</text><text class="terminal-r3" x="12.2" y="239.6" textLength="12.2" clip-path="url(#terminal-line-9)">│</text><text class="terminal-r6" x="317.2" y="239.6" textLength="85.4" clip-path="url(#terminal-line-9)">&#160;Start&#160;</text><text class="terminal-r3" x="707.6" y="239.6" textLength="12.2" clip-path="url(#terminal-line-9)">│</text><text class="terminal-r1" x="732" y="239.6" textLength="12.2" clip-path="url(#terminal-line-9)">
</text><text class="terminal-r3" x="12.2" y="264" textLength="12.2" clip-path="url(#terminal-line-10)">│</text><text class="terminal-r7" x="36.6" y="264" textLength="658.8" clip-path="url(#terminal-line-10)">▁▁▁▁▁▁▁▁▁▁▁▁▁▁▁▁▁▁▁▁▁▁▁▁▁▁▁▁▁▁▁▁▁▁▁▁▁▁▁▁▁▁▁▁▁▁▁▁▁▁▁▁▁▁</text><text class="terminal-r3" x="707.6" y="264" textLength="12.2" clip-path="url(#terminal-line-10)">│</text><text class="terminal-r1" x="732" y="264" textLength="12.2" clip-path="url(#terminal-line-10)">
</text><text class="terminal-r3" x="12.2" y="288.4" textLength="12.2" clip-path="url(#terminal-line-11)">│</text><text class="terminal-r8" x="329.4" y="288.4" textLength="61" clip-path="url(#terminal-line-11)">Timer</text><text class="terminal-r3" x="707.6" y="288.4" textLength="12.2" clip-path="url(#terminal-line-11)">│</text><text class="terminal-r1" x="732" y="288.4" textLength="12.2" clip-path="url(#terminal-line-11)">
</text><text class="terminal-r3" x="12.2" y="312.8" textLength="12.2" clip-path="url(#terminal-line-12)">│</text><text class="terminal-r3" x="707.6" y="312.8" textLength="12.2" clip-path="url(#terminal-line-12)">│</text><text class="terminal-r1" x="732" y="312.8" textLength="12.2" clip-path="url(#terminal-line-12)">
</text><text class="terminal-r3" x="12.2" y="337.2" textLength="707.6" clip-path="url(#terminal-line-13)">╰────────────────────────────────────────────────────────╯</text><text class="terminal-r1" x="732" y="337.2" textLength="12.2" clip-path="url(#terminal-line-13)">
</text><text class="terminal-r1" x="732" y="361.6" textLength="12.2" clip-path="url(#terminal-line-14)">
</text><text class="terminal-r9" x="0" y="386" textLength="48.8" clip-path="url(#terminal-line-15)">&#160;^q&#160;</text><text class="terminal-r2" x="48.8" y="386" textLength="61" clip-path="url(#terminal-line-15)">Quit&#160;</text><text class="terminal-r10" x="585.6" y="386" textLength="12.2" clip-path="url(#terminal-line-15)">▏</text><text class="terminal-r9" x="597.8" y="386" textLength="24.4" clip-path="url(#terminal-line-15)">^p</text><text class="terminal-r2" x="622.2" y="386" textLength="97.6" clip-path="url(#terminal-line-15)">&#160;palette</text>
    </g>
    </g>
</svg>
